<?xml version="1.0" encoding="UTF-8"?><svg id="_レイヤー_2" xmlns="http://www.w3.org/2000/svg" viewBox="0 0 600 100"><defs><style>.cls-1{fill:#1a306a;stroke-width:0px;}</style></defs><path class="cls-1" d="M75.87,28.11c-.1.34-.24.83-.43,1.48-.19.65-.36,1.28-.5,1.91-.14.62-.26,1.1-.36,1.44-.43,2.5-.95,5.27-1.55,8.32-.6,3.05-1.44,6.16-2.52,9.32s-2.58,6.19-4.5,9.07c-2.98,4.71-6.83,8.82-11.56,12.35-4.73,3.53-9.97,6.3-15.73,8.32l-8.06-8.21c3.26-.82,6.56-2,9.9-3.56,3.34-1.56,6.47-3.5,9.4-5.83,2.93-2.33,5.33-4.98,7.2-7.96,1.25-1.97,2.3-4.13,3.17-6.48.86-2.35,1.58-4.81,2.16-7.38.58-2.57.98-5.15,1.22-7.74H29.14v12.02c0,.53.01,1.36.04,2.48.02,1.13.11,2.27.25,3.42h-10.58c.1-1.15.18-2.18.25-3.1.07-.91.11-1.85.11-2.81v-15.19c0-1.01-.04-2.03-.11-3.06-.07-1.03-.16-2.03-.25-2.99,1.15.05,2.5.11,4.03.18,1.54.07,3.14.11,4.82.11h34.42c1.2,0,2.39-.05,3.56-.14,1.18-.1,2.24-.22,3.2-.36l6.98,4.39Z"/><path class="cls-1" d="M87.38,48.34c6.48-1.68,12.35-3.64,17.6-5.87,5.26-2.23,9.88-4.57,13.86-7.02,2.5-1.54,5-3.3,7.52-5.29,2.52-1.99,4.9-4.04,7.13-6.16,2.23-2.11,4.12-4.13,5.65-6.05l7.78,7.42c-2.21,2.16-4.62,4.34-7.24,6.55-2.62,2.21-5.34,4.32-8.17,6.34-2.83,2.02-5.64,3.86-8.42,5.54-2.74,1.58-5.8,3.22-9.18,4.9-3.38,1.68-6.95,3.26-10.69,4.75-3.74,1.49-7.51,2.81-11.3,3.96l-4.54-9.07ZM117.34,40.06l10.22-2.38v32.4c0,1.06.02,2.21.07,3.46.05,1.25.12,2.41.22,3.49.1,1.08.22,1.91.36,2.48h-11.38c.1-.58.18-1.4.25-2.48s.13-2.24.18-3.49c.05-1.25.07-2.4.07-3.46v-30.02Z"/><path class="cls-1" d="M160.25,64.47c1.15.19,2.35.34,3.6.43,1.25.1,2.42.14,3.53.14h47.45c1.3,0,2.52-.06,3.67-.18,1.15-.12,2.18-.25,3.1-.4v10.44c-1.06-.14-2.23-.24-3.53-.29-1.3-.05-2.38-.07-3.24-.07h-47.45c-1.06,0-2.21.02-3.46.07-1.25.05-2.47.14-3.67.29v-10.44ZM164.93,26.1c.96.1,2.09.19,3.38.29,1.3.1,2.45.14,3.46.14h39.17c1.1,0,2.26-.05,3.46-.14,1.2-.1,2.3-.19,3.31-.29v9.86c-1.06-.1-2.18-.17-3.38-.22-1.2-.05-2.33-.07-3.38-.07h-39.17c-.96,0-2.11.02-3.46.07s-2.47.12-3.38.22v-9.86ZM185.66,70.38V31.64h10.08v38.74h-10.08Z"/><path class="cls-1" d="M288.19,28.33c-.38.58-.78,1.28-1.19,2.12-.41.84-.78,1.74-1.12,2.7-1.3,3.79-2.68,7.29-4.14,10.48-1.46,3.19-3,6.14-4.61,8.86-1.61,2.71-3.35,5.27-5.22,7.67-2.5,3.12-5.36,6.02-8.6,8.71-3.24,2.69-6.66,5.08-10.26,7.16-3.6,2.09-7.22,3.8-10.87,5.15l-7.99-8.14c4.37-1.34,8.39-2.99,12.06-4.93,3.67-1.94,7-4.12,9.97-6.52,2.98-2.4,5.59-4.9,7.85-7.49,1.78-2.21,3.38-4.54,4.82-6.98,1.44-2.45,2.66-4.87,3.67-7.27,1.01-2.4,1.77-4.61,2.3-6.62h-26.28c-.96,0-2.03.03-3.2.07-1.18.05-2.32.08-3.42.11-1.1.03-1.99.06-2.66.11v-9.72c1.06.1,2.47.2,4.25.32,1.78.12,3.46.18,5.04.18h27.29c.96,0,1.93-.11,2.92-.32.98-.22,1.81-.47,2.48-.76l6.91,5.11ZM248.23,39.78c3.22,1.68,6.65,3.66,10.3,5.94,3.65,2.28,7.29,4.68,10.94,7.2,3.65,2.52,7.08,5.03,10.3,7.52,3.22,2.5,6,4.8,8.35,6.91l-6.77,7.99c-1.82-1.78-3.97-3.7-6.44-5.76-2.47-2.06-5.11-4.15-7.92-6.26-2.81-2.11-5.65-4.19-8.53-6.23-2.88-2.04-5.7-3.94-8.46-5.69-2.76-1.75-5.32-3.25-7.67-4.5l5.9-7.13Z"/><path class="cls-1" d="M304.25,64.47c1.15.19,2.35.34,3.6.43,1.25.1,2.42.14,3.53.14h47.45c1.3,0,2.52-.06,3.67-.18,1.15-.12,2.18-.25,3.1-.4v10.44c-1.06-.14-2.23-.24-3.53-.29-1.3-.05-2.38-.07-3.24-.07h-47.45c-1.06,0-2.21.02-3.46.07-1.25.05-2.47.14-3.67.29v-10.44ZM308.93,26.1c.96.1,2.09.19,3.38.29,1.3.1,2.45.14,3.46.14h39.17c1.1,0,2.26-.05,3.46-.14,1.2-.1,2.3-.19,3.31-.29v9.86c-1.06-.1-2.18-.17-3.38-.22-1.2-.05-2.33-.07-3.38-.07h-39.17c-.96,0-2.11.02-3.46.07s-2.47.12-3.38.22v-9.86ZM329.66,70.38V31.64h10.08v38.74h-10.08Z"/><path class="cls-1" d="M430.97,27.54c-.29.43-.71,1.1-1.26,2.02-.55.91-.97,1.75-1.26,2.52-1.01,2.26-2.25,4.78-3.71,7.56-1.46,2.78-3.12,5.58-4.97,8.39-1.85,2.81-3.8,5.44-5.87,7.88-2.69,3.02-5.65,6.01-8.89,8.96-3.24,2.95-6.65,5.66-10.22,8.14-3.58,2.47-7.24,4.6-10.98,6.37l-7.42-7.78c3.89-1.49,7.66-3.36,11.3-5.62,3.65-2.25,7.03-4.7,10.15-7.34,3.12-2.64,5.81-5.21,8.06-7.7,1.58-1.82,3.08-3.77,4.5-5.83,1.42-2.06,2.67-4.12,3.78-6.16,1.1-2.04,1.92-3.92,2.45-5.65h-24.41c-1.01,0-2.06.04-3.17.11-1.1.07-2.15.14-3.13.22-.98.07-1.74.13-2.27.18v-10.22c.72.05,1.61.12,2.66.22,1.05.1,2.12.17,3.2.22,1.08.05,1.98.07,2.7.07h25.42c1.58,0,3.04-.1,4.36-.29,1.32-.19,2.34-.41,3.06-.65l5.9,4.39ZM414.84,49.93c1.87,1.49,3.86,3.22,5.98,5.18,2.11,1.97,4.2,4.01,6.26,6.12,2.06,2.11,3.97,4.14,5.72,6.08,1.75,1.94,3.23,3.64,4.43,5.08l-8.21,7.13c-1.78-2.45-3.8-4.99-6.08-7.63-2.28-2.64-4.68-5.27-7.2-7.88-2.52-2.62-5.08-5.1-7.67-7.45l6.77-6.62Z"/><path class="cls-1" d="M447.46,69.66h62.78v8.78h-62.78v-8.78ZM451.49,22.06h54.94v8.86h-54.94v-8.86ZM456.46,45.25h44.21v8.78h-44.21v-8.78Z"/><path class="cls-1" d="M520.83,19.98h60.34v62.06h-9V28.33h-42.7v53.71h-8.64V19.98ZM525.72,44.17h50.69v8.64h-50.69v-8.64ZM525.72,68.86h50.33v8.71h-50.33v-8.71ZM546.02,23.86h8.78v49.54h-8.78V23.86Z"/><path class="cls-1" d="M75.86,28.11c-.1.34-.24.83-.43,1.48-.19.65-.36,1.28-.5,1.91-.14.62-.26,1.1-.36,1.44-.43,2.5-.95,5.27-1.55,8.32-.6,3.05-1.44,6.16-2.52,9.32s-2.58,6.19-4.5,9.07c-2.98,4.71-6.83,8.82-11.56,12.35-4.73,3.53-9.97,6.3-15.73,8.32l-8.06-8.21c3.26-.82,6.56-2,9.9-3.56,3.34-1.56,6.47-3.5,9.4-5.83,2.93-2.33,5.33-4.98,7.2-7.96,1.25-1.97,2.3-4.13,3.17-6.48.86-2.35,1.58-4.81,2.16-7.38.58-2.57.98-5.15,1.22-7.74H29.14v12.02c0,.53.01,1.36.04,2.48.02,1.13.11,2.27.25,3.42h-10.58c.1-1.15.18-2.18.25-3.1.07-.91.11-1.85.11-2.81v-15.19c0-1.01-.04-2.03-.11-3.06-.07-1.03-.16-2.03-.25-2.99,1.15.05,2.5.11,4.03.18,1.54.07,3.14.11,4.82.11h34.42c1.2,0,2.39-.05,3.56-.14,1.18-.1,2.24-.22,3.2-.36l6.98,4.39Z"/><path class="cls-1" d="M87.38,48.34c6.48-1.68,12.35-3.64,17.6-5.87,5.26-2.23,9.88-4.57,13.86-7.02,2.5-1.54,5-3.3,7.52-5.29,2.52-1.99,4.9-4.04,7.13-6.16,2.23-2.11,4.12-4.13,5.65-6.05l7.78,7.42c-2.21,2.16-4.62,4.34-7.24,6.55-2.62,2.21-5.34,4.32-8.17,6.34-2.83,2.02-5.64,3.86-8.42,5.54-2.74,1.58-5.8,3.22-9.18,4.9-3.38,1.68-6.95,3.26-10.69,4.75-3.74,1.49-7.51,2.81-11.3,3.96l-4.54-9.07ZM117.34,40.06l10.22-2.38v32.4c0,1.06.02,2.21.07,3.46.05,1.25.12,2.41.22,3.49.1,1.08.22,1.91.36,2.48h-11.38c.1-.58.18-1.4.25-2.48s.13-2.24.18-3.49c.05-1.25.07-2.4.07-3.46v-30.02Z"/><path class="cls-1" d="M160.25,64.47c1.15.19,2.35.34,3.6.43,1.25.1,2.42.14,3.53.14h47.45c1.3,0,2.52-.06,3.67-.18,1.15-.12,2.18-.25,3.1-.4v10.44c-1.06-.14-2.23-.24-3.53-.29-1.3-.05-2.38-.07-3.24-.07h-47.45c-1.06,0-2.21.02-3.46.07-1.25.05-2.47.14-3.67.29v-10.44ZM164.93,26.1c.96.1,2.09.19,3.38.29,1.3.1,2.45.14,3.46.14h39.17c1.1,0,2.26-.05,3.46-.14,1.2-.1,2.3-.19,3.31-.29v9.86c-1.06-.1-2.18-.17-3.38-.22-1.2-.05-2.33-.07-3.38-.07h-39.17c-.96,0-2.11.02-3.46.07s-2.47.12-3.38.22v-9.86ZM185.66,70.38V31.64h10.08v38.74h-10.08Z"/><path class="cls-1" d="M288.19,28.33c-.38.58-.78,1.28-1.19,2.12-.41.84-.78,1.74-1.12,2.7-1.3,3.79-2.68,7.29-4.14,10.48-1.46,3.19-3,6.14-4.61,8.86-1.61,2.71-3.35,5.27-5.22,7.67-2.5,3.12-5.36,6.02-8.6,8.71-3.24,2.69-6.66,5.08-10.26,7.16-3.6,2.09-7.22,3.8-10.87,5.15l-7.99-8.14c4.37-1.34,8.39-2.99,12.06-4.93,3.67-1.94,7-4.12,9.97-6.52,2.98-2.4,5.59-4.9,7.85-7.49,1.78-2.21,3.38-4.54,4.82-6.98,1.44-2.45,2.66-4.87,3.67-7.27,1.01-2.4,1.77-4.61,2.3-6.62h-26.28c-.96,0-2.03.03-3.2.07-1.18.05-2.32.08-3.42.11-1.1.03-1.99.06-2.66.11v-9.72c1.06.1,2.47.2,4.25.32,1.78.12,3.46.18,5.04.18h27.29c.96,0,1.93-.11,2.92-.32.98-.22,1.81-.47,2.48-.76l6.91,5.11ZM248.23,39.78c3.22,1.68,6.65,3.66,10.3,5.94,3.65,2.28,7.29,4.68,10.94,7.2,3.65,2.52,7.08,5.03,10.3,7.52,3.22,2.5,6,4.8,8.35,6.91l-6.77,7.99c-1.82-1.78-3.97-3.7-6.44-5.76-2.47-2.06-5.11-4.15-7.92-6.26-2.81-2.11-5.65-4.19-8.53-6.23-2.88-2.04-5.7-3.94-8.46-5.69-2.76-1.75-5.32-3.25-7.67-4.5l5.9-7.13Z"/><path class="cls-1" d="M304.25,64.47c1.15.19,2.35.34,3.6.43,1.25.1,2.42.14,3.53.14h47.45c1.3,0,2.52-.06,3.67-.18,1.15-.12,2.18-.25,3.1-.4v10.44c-1.06-.14-2.23-.24-3.53-.29-1.3-.05-2.38-.07-3.24-.07h-47.45c-1.06,0-2.21.02-3.46.07-1.25.05-2.47.14-3.67.29v-10.44ZM308.93,26.1c.96.1,2.09.19,3.38.29,1.3.1,2.45.14,3.46.14h39.17c1.1,0,2.26-.05,3.46-.14,1.2-.1,2.3-.19,3.31-.29v9.86c-1.06-.1-2.18-.17-3.38-.22-1.2-.05-2.33-.07-3.38-.07h-39.17c-.96,0-2.11.02-3.46.07s-2.47.12-3.38.22v-9.86ZM329.66,70.38V31.64h10.08v38.74h-10.08Z"/><path class="cls-1" d="M430.97,27.54c-.29.43-.71,1.1-1.26,2.02-.55.91-.97,1.75-1.26,2.52-1.01,2.26-2.25,4.78-3.71,7.56-1.46,2.78-3.12,5.58-4.97,8.39-1.85,2.81-3.8,5.44-5.87,7.88-2.69,3.02-5.65,6.01-8.89,8.96-3.24,2.95-6.65,5.66-10.22,8.14-3.58,2.47-7.24,4.6-10.98,6.37l-7.42-7.78c3.89-1.49,7.66-3.36,11.3-5.62,3.65-2.25,7.03-4.7,10.15-7.34,3.12-2.64,5.81-5.21,8.06-7.7,1.58-1.82,3.08-3.77,4.5-5.83,1.42-2.06,2.67-4.12,3.78-6.16,1.1-2.04,1.92-3.92,2.45-5.65h-24.41c-1.01,0-2.06.04-3.17.11-1.1.07-2.15.14-3.13.22-.98.07-1.74.13-2.27.18v-10.22c.72.05,1.61.12,2.66.22,1.05.1,2.12.17,3.2.22,1.08.05,1.98.07,2.7.07h25.42c1.58,0,3.04-.1,4.36-.29,1.32-.19,2.34-.41,3.06-.65l5.9,4.39ZM414.84,49.93c1.87,1.49,3.86,3.22,5.98,5.18,2.11,1.97,4.2,4.01,6.26,6.12,2.06,2.11,3.97,4.14,5.72,6.08,1.75,1.94,3.23,3.64,4.43,5.08l-8.21,7.13c-1.78-2.45-3.8-4.99-6.08-7.63-2.28-2.64-4.68-5.27-7.2-7.88-2.52-2.62-5.08-5.1-7.67-7.45l6.77-6.62Z"/><path class="cls-1" d="M447.46,69.66h62.78v8.78h-62.78v-8.78ZM451.49,22.06h54.94v8.86h-54.94v-8.86ZM456.46,45.25h44.21v8.78h-44.21v-8.78Z"/><path class="cls-1" d="M520.82,19.98h60.34v62.06h-9V28.33h-42.7v53.71h-8.64V19.98ZM525.72,44.17h50.69v8.64h-50.69v-8.64ZM525.72,68.86h50.33v8.71h-50.33v-8.71ZM546.02,23.86h8.78v49.54h-8.78V23.86Z"/></svg>