<?xml version="1.0" encoding="UTF-8"?><svg id="_レイヤー_2" xmlns="http://www.w3.org/2000/svg" viewBox="0 0 96 96"><defs><style>.cls-1{fill:#1a306a;}.cls-1,.cls-2{stroke-width:0px;}.cls-2{fill:#fff;}</style></defs><rect class="cls-1" width="96" height="96"/><path class="cls-2" d="M23.43,59.45v-9.92l-7.91-13.55h5.06l5.06,8.82,5.03-8.82h5.1l-7.95,13.55v9.92h-4.39Z"/><path class="cls-2" d="M38.55,59.45v-23.47h4.36l10.49,15.86v-15.86h4.39v23.47h-4.16l-10.73-16.4v16.4h-4.36Z"/><path class="cls-2" d="M70.97,59.95c-2.01,0-3.86-.44-5.55-1.32-1.69-.88-3.02-2.39-4.01-4.51l3.65-2.01c.65,1.16,1.43,2.07,2.35,2.72.92.65,2.16.97,3.72.97s2.57-.26,3.08-.79c.51-.52.77-1.22.77-2.1,0-.56-.13-1.04-.38-1.44-.26-.4-.82-.79-1.68-1.16s-2.19-.77-3.97-1.19c-2.17-.51-3.77-1.34-4.79-2.48-1.03-1.14-1.54-2.56-1.54-4.26,0-1.41.33-2.64,1.01-3.69.67-1.05,1.61-1.87,2.83-2.46,1.22-.59,2.65-.89,4.31-.89,1.52,0,2.86.23,4.02.7s2.15,1.08,2.97,1.84c.82.76,1.46,1.59,1.93,2.48l-3.45,2.58c-.34-.54-.74-1.07-1.22-1.59-.48-.52-1.07-.97-1.76-1.32-.69-.36-1.54-.54-2.55-.54s-1.91.22-2.57.65-.99,1.11-.99,2.03c0,.36.09.72.28,1.09.19.37.64.73,1.34,1.09.7.36,1.83.73,3.37,1.11,2.62.63,4.51,1.56,5.68,2.8,1.17,1.24,1.76,2.77,1.76,4.58,0,2.3-.78,4.06-2.33,5.28-1.55,1.22-3.65,1.83-6.29,1.83Z"/></svg>